<svg width="523" height="333" viewBox="0 0 523 333" xmlns="http://www.w3.org/2000/svg" lang="en" xml:lang="en"><rect x="2" y="2" stroke-width="4" rx="6" width="519" height="329" stroke="rgba(56,139,253,0.4)" fill="#0d1117"/><g font-weight="600" font-size="110pt" font-family="Verdana,Geneva,DejaVu Sans,sans-serif" text-rendering="geometricPrecision"><text x="442" y="301" lengthAdjust="spacingAndGlyphs" textLength="3360" transform="scale(0.123)" fill="#58a6ff">Muhammad Zein Akbar's GitHub Activity</text><svg x="15" y="15" width="25" height="25" viewBox="0 0 16 16"><path fill="#ffffff" fill-rule="evenodd" d="M8 0C3.58 0 0 3.58 0 8c0 3.54 2.29 6.53 5.47 7.59.4.07.55-.17.55-.38 0-.19-.01-.82-.01-1.49-2.01.37-2.53-.49-2.69-.94-.09-.23-.48-.94-.82-1.13-.28-.15-.68-.52-.01-.53.63-.01 1.08.58 1.23.82.72 1.21 1.87.87 2.33.66.07-.52.28-.87.51-1.07-1.78-.2-3.64-.89-3.64-3.95 0-.87.31-1.59.82-2.15-.08-.2-.36-1.02.08-2.12 0 0 .67-.21 2.2.82.64-.18 1.32-.27 2-.27.68 0 1.36.09 2 .27 1.53-1.04 2.2-.82 2.2-.82.44 1.1.16 1.92.08 2.12.51.56.82 1.27.82 2.15 0 3.07-1.87 3.75-3.65 3.95.29.25.54.73.54 1.48 0 1.07-.01 1.93-.01 2.2 0 .21.15.46.55.38A8.013 8.013 0 0016 8c0-4.42-3.58-8-8-8z"/></svg><svg x="483" y="15" width="25" height="25" viewBox="0 0 16 16"><path fill="#ffffff" fill-rule="evenodd" d="M8 0C3.58 0 0 3.58 0 8c0 3.54 2.29 6.53 5.47 7.59.4.07.55-.17.55-.38 0-.19-.01-.82-.01-1.49-2.01.37-2.53-.49-2.69-.94-.09-.23-.48-.94-.82-1.13-.28-.15-.68-.52-.01-.53.63-.01 1.08.58 1.23.82.72 1.21 1.87.87 2.33.66.07-.52.28-.87.51-1.07-1.78-.2-3.64-.89-3.64-3.95 0-.87.31-1.59.82-2.15-.08-.2-.36-1.02.08-2.12 0 0 .67-.21 2.2.82.64-.18 1.32-.27 2-.27.68 0 1.36.09 2 .27 1.53-1.04 2.2-.82 2.2-.82.44 1.1.16 1.92.08 2.12.51.56.82 1.27.82 2.15 0 3.07-1.87 3.75-3.65 3.95.29.25.54.73.54 1.48 0 1.07-.01 1.93-.01 2.2 0 .21.15.46.55.38A8.013 8.013 0 0016 8c0-4.42-3.58-8-8-8z"/></svg><g transform="translate(0, 60)" fill="#c9d1d9"><g transform="translate(15, 0)"><g transform="scale(0.095)"><text x="0" y="132" textLength="3652" lengthAdjust="spacingAndGlyphs">Language Distribution in Public Repositories</text></g></g><g transform="translate(276, 21)"><circle cx="113" cy="113" r="113" fill="#ffffff"/></g><g transform="translate(277, 22)"><path fill-rule="evenodd" fill="#e34c26" d="M 0.0,112.00000000000001 A 112 112 0 0 1 131.6259489055133 1.732950844061392 L 112,112 Z"/><path fill-rule="evenodd" fill="#563d7c" d="M 131.6259489055133,1.732950844061392 A 112 112 0 0 1 221.28311690298418 136.51938743053535 L 112,112 Z"/><path fill-rule="evenodd" fill="#4F5D95" d="M 221.28311690298418,136.51938743053535 A 112 112 0 0 1 162.1931640452935 212.1231555791279 L 112,112 Z"/><path fill-rule="evenodd" fill="#3178c6" d="M 162.1931640452935,212.1231555791279 A 112 112 0 0 1 90.9757827946799 222.00901004419376 L 112,112 Z"/><path fill-rule="evenodd" fill="#f1e05a" d="M 90.9757827946799,222.00901004419376 A 112 112 0 0 1 39.47790306498513 197.34954865814058 L 112,112 Z"/><path fill-rule="evenodd" fill="#9400ff" d="M 39.47790306498513,197.34954865814058 A 112 112 0 0 1 8.525164116433942 154.85975196929013 L 112,112 Z"/><path fill-rule="evenodd" fill="#701516" d="M 8.525164116433942,154.85975196929013 A 112 112 0 0 1 3.851102228902988 141.11727856268178 L 112,112 Z"/><path fill-rule="evenodd" fill="#878787" d="M 3.851102228902988,141.11727856268178 A 112 112 0 0 1 1.2047295029893945 128.38316317120268 L 112,112 Z"/><path fill-rule="evenodd" fill="#ff5a03" d="M 1.2047295029893945,128.38316317120268 A 112 112 0 0 1 0.09890860184020767 116.70592646571174 L 112,112 Z"/><path fill-rule="evenodd" fill="#959da5" d="M 0.09890860184020767,116.70592646571174 A 112 112 0 0 1 0.0 112.00000000000004 L 112,112 Z"/></g><g transform="translate(15, 21)"><rect x="0.5" y="0.5" rx="2" width="15" height="15" fill="#e34c26" stroke-width="1" stroke="#ffffff"/><text transform="scale(0.095)" x="263" y="132" textLength="1142" lengthAdjust="spacingAndGlyphs">HTML 27.80%</text></g><g transform="translate(15, 42)"><rect x="0.5" y="0.5" rx="2" width="15" height="15" fill="#563d7c" stroke-width="1" stroke="#ffffff"/><text transform="scale(0.095)" x="263" y="132" textLength="1008" lengthAdjust="spacingAndGlyphs">CSS 25.71%</text></g><g transform="translate(15, 63)"><rect x="0.5" y="0.5" rx="2" width="15" height="15" fill="#4F5D95" stroke-width="1" stroke="#ffffff"/><text transform="scale(0.095)" x="263" y="132" textLength="1005" lengthAdjust="spacingAndGlyphs">PHP 14.09%</text></g><g transform="translate(15, 84)"><rect x="0.5" y="0.5" rx="2" width="15" height="15" fill="#3178c6" stroke-width="1" stroke="#ffffff"/><text transform="scale(0.095)" x="263" y="132" textLength="1568" lengthAdjust="spacingAndGlyphs">TypeScript 10.40%</text></g><g transform="translate(15, 105)"><rect x="0.5" y="0.5" rx="2" width="15" height="15" fill="#f1e05a" stroke-width="1" stroke="#ffffff"/><text transform="scale(0.095)" x="263" y="132" textLength="1412" lengthAdjust="spacingAndGlyphs">JavaScript 8.20%</text></g><g transform="translate(15, 126)"><rect x="0.5" y="0.5" rx="2" width="15" height="15" fill="#9400ff" stroke-width="1" stroke="#ffffff"/><text transform="scale(0.095)" x="263" y="132" textLength="1275" lengthAdjust="spacingAndGlyphs">ASP.NET 7.54%</text></g><g transform="translate(15, 147)"><rect x="0.5" y="0.5" rx="2" width="15" height="15" fill="#701516" stroke-width="1" stroke="#ffffff"/><text transform="scale(0.095)" x="263" y="132" textLength="999" lengthAdjust="spacingAndGlyphs">Ruby 2.06%</text></g><g transform="translate(15, 168)"><rect x="0.5" y="0.5" rx="2" width="15" height="15" fill="#878787" stroke-width="1" stroke="#ffffff"/><text transform="scale(0.095)" x="263" y="132" textLength="988" lengthAdjust="spacingAndGlyphs">Hack 1.85%</text></g><g transform="translate(15, 189)"><rect x="0.5" y="0.5" rx="2" width="15" height="15" fill="#ff5a03" stroke-width="1" stroke="#ffffff"/><text transform="scale(0.095)" x="263" y="132" textLength="1008" lengthAdjust="spacingAndGlyphs">Astro 1.67%</text></g><g transform="translate(15, 210)"><rect x="0.5" y="0.5" rx="2" width="15" height="15" fill="#959da5" stroke-width="1" stroke="#ffffff"/><text transform="scale(0.095)" x="263" y="132" textLength="1047" lengthAdjust="spacingAndGlyphs">Other 0.67%</text></g></g></g></svg>